<svg width="454" height="497" viewBox="0 0 454 497" fill="none" xmlns="http://www.w3.org/2000/svg">
<path d="M256 -15C181.561 -15 121 45.561 121 120C121 194.439 181.561 255 256 255C330.439 255 391 194.439 391 120C391 45.561 330.439 -15 256 -15Z" fill="#7A7A7A"/>
<path d="M423.966 343.195C387.006 305.667 338.009 285 286 285H226C173.992 285 124.994 305.667 88.034 343.195C51.255 380.539 31 429.833 31 482C31 490.284 37.716 497 46 497H466C474.284 497 481 490.284 481 482C481 429.833 460.745 380.539 423.966 343.195Z" fill="#7A7A7A"/>
</svg>
